<svg version="1.1" viewBox="0 0 7506 2800" xmlns="http://www.w3.org/2000/svg">
  <defs>
    <clipPath id="clipPath19868-6">
      <path d="m0 600h600v-600h-600z"/>
    </clipPath>
  </defs>
  <g transform="translate(-114.77 -137.83)">
    <circle cx="1614.8" cy="1037.8" r="500" fill="#806100" stop-color="#000000"/>
    <g transform="translate(16.642 -30.572)">
      <path d="m1452 966.11h170.26v-20.909h-170.26zm0-59.479h259.87v-20.909h-259.87zm0-59.479h259.87v-20.909h-259.87zm-55.259 519.02c-12.944 0-23.647-4.2316-32.11-12.695-8.4632-8.4631-12.695-19.166-12.695-32.11v-530.39c0-12.944 4.2315-23.647 12.695-32.11 8.4631-8.4631 19.166-12.695 32.11-12.695h370.39c12.944 0 23.647 4.2316 32.11 12.695 8.4632 8.4631 12.695 19.166 12.695 32.11v530.39c0 12.944-4.2315 23.647-12.695 32.11-8.4631 8.4631-19.166 12.695-32.11 12.695zm0-20.909h370.39c5.9739 0 11.45-2.4892 16.428-7.4675s7.4674-10.454 7.4674-16.428v-530.39c0-5.974-2.4891-11.45-7.4674-16.428s-10.454-7.4674-16.428-7.4674h-370.39c-5.974 0-11.45 2.4891-16.428 7.4674s-7.4675 10.454-7.4675 16.428v530.39c0 5.974 2.4892 11.45 7.4675 16.428s10.454 7.4675 16.428 7.4675zm-23.896-578.18v578.18zm78.335 377.21h170.26v-20.909h-170.26zm0-59.479h259.87v-20.909h-259.87zm0-59.479h259.87v-20.909h-259.87zm0.8624 239.55h259.87v-20.909h-259.87zm0-59.479h259.87v-20.909h-259.87z" fill="#fff" fill-opacity=".45041" stroke-width=".74674"/>
      <path d="m1875.8 1346.2-186.18-186.18q-22.342 19.363-51.386 29.789-29.044 10.426-57.344 10.426-68.688 0-116.26-47.541-47.576-47.544-47.576-116.18 0-68.637 47.541-116.3 47.544-47.663 116.18-47.663 68.637 0 116.3 47.576 47.663 47.576 47.663 116.26 0 30.534-11.171 59.578-11.171 29.044-29.044 49.152l186.18 186.18zm-294.91-166.82q60.323 0 101.66-41.332t41.332-101.66q0-60.323-41.332-101.66-41.332-41.332-101.66-41.332-60.323 0-101.66 41.332-41.332 41.333-41.332 101.66 0 60.323 41.332 101.66t101.66 41.332z" fill="#ede0bd" stroke-width=".74473"/>
      <path d="m1538.2 1180.2c-61.415-17.45-104.86-75.436-105.59-140.93-0.6585-59.355 27.329-107.26 79.137-135.46 33.37-18.162 84.809-21.179 121.98-7.1556 56.185 21.195 94.43 75.132 94.932 133.88 0.1469 17.192-1.9675 39.509-4.6986 49.593-10.548 38.943-46.021 78.08-86.381 95.301-21.77 9.2892-74.552 11.818-99.386 4.7624z" fill="#ede0bd" fill-opacity=".63251" stop-color="#000000"/>
    </g>
    <g>
      <circle cx="1014.8" cy="2037.8" r="500" fill="#753775" stop-color="#000000"/>
      <circle cx="2214.8" cy="2037.8" r="500" fill="#009aa2" stop-color="#000000"/>
      <g transform="matrix(1.0074 0 0 -1.0074 1919.2 2339.5)" clip-path="url(#clipPath19868-6)">
        <g fill="#fff" opacity=".801" stroke="#fff">
          <path d="m131.27 491.29 17.143-355.65" stroke-width="1.158"/>
          <g>
            <path d="m471.04 477.84c-125.55-87.276-233.33-163.31-260.76-182.69l-3.882-2.736s140.9-130.74 264.64-245.55v9.819c-118.24 109.71-249.38 231.39-253.17 234.91 77.435 54.689 165.48 116.42 253.17 177.34z"/>
            <path d="m212.39 161.83c-64.305 0-116.61 52.31-116.61 116.61s52.305 116.62 116.61 116.62c64.294 0 116.61-52.315 116.61-116.62s-52.314-116.61-116.61-116.61m0-8.043c68.728 0 124.65 55.92 124.65 124.65 0 68.738-55.923 124.66-124.65 124.66-68.74 0-124.65-55.917-124.65-124.66 0-68.733 55.912-124.65 124.65-124.65"/>
            <path d="m414.11 18.964c-39.767 0-72.115 32.355-72.117 72.117 0 39.769 32.35 72.12 72.117 72.12 39.763 0 72.117-32.351 72.117-72.12 1e-3 -39.762-32.354-72.117-72.117-72.117m0-4.974c42.505 0 77.091 34.585 77.089 77.091 0 42.51-34.585 77.093-77.089 77.093-42.51 0-77.09-34.583-77.09-77.093 1e-3 -42.506 34.581-77.091 77.09-77.091"/>
            <path d="m64.648 429.56c-21.395 0-38.798 17.408-38.798 38.799 0 21.397 17.403 38.801 38.798 38.801 21.393 0 38.799-17.404 38.799-38.801 1e-3 -21.391-17.406-38.799-38.799-38.799m0-2.675c22.868 0 41.475 18.607 41.475 41.474 0 22.871-18.608 41.477-41.475 41.477-22.87 0-41.474-18.606-41.474-41.477 1e-3 -22.868 18.604-41.474 41.474-41.474"/>
            <path d="m513.68 429.02c-39.769 0-72.116 32.355-72.117 72.118 0 39.769 32.348 72.12 72.117 72.12 39.763 0 72.116-32.351 72.116-72.12 1e-3 -39.763-32.353-72.118-72.116-72.118m0-4.973c42.504 0 77.09 34.585 77.088 77.091 0 42.509-34.585 77.093-77.088 77.093-42.511 0-77.09-34.584-77.09-77.093 1e-3 -42.506 34.581-77.091 77.09-77.091"/>
            <path d="m83.309 441.52 66.996-60.464 4.401 4.875-66.997 60.465z"/>
            <path d="m136.55 132.06c10.111 6.635 23.734 3.805 30.367-6.305 6.634-10.112 3.806-23.734-6.305-30.369-10.111-6.634-23.733-3.805-30.368 6.305-6.634 10.111-3.806 23.735 6.306 30.369m-0.83 1.264c-10.807-7.091-13.831-21.653-6.74-32.461s21.656-13.832 32.462-6.74c10.809 7.092 13.832 21.652 6.739 32.461-7.09 10.807-21.653 13.833-32.461 6.74"/>
            <path d="m131.44 118.31-50.412 7.8-0.568-3.67 50.412-7.799z"/>
            <path d="m115.76 534.59-34.593-37.491 2.729-2.517 34.592 37.49z"/>
            <path d="m544.26 246.36c1.329 6.075 7.351 9.935 13.426 8.606 6.075-1.33 9.935-7.353 8.605-13.427-1.328-6.074-7.351-9.935-13.426-8.606-6.074 1.328-9.935 7.353-8.605 13.427m-0.761 0.165c-1.419-6.493 2.708-12.931 9.2-14.35 6.493-1.422 12.932 2.706 14.353 9.198 1.419 6.494-2.708 12.932-9.201 14.353s-12.931-2.706-14.352-9.201"/>
            <path d="m548.12 239.38-21.329-15.267 1.111-1.552 21.329 15.266z"/>
            <path d="m471.1 242.54c-6.192 0.596-10.742 6.113-10.145 12.305 0.595 6.189 6.113 10.739 12.303 10.144 6.188-0.595 10.741-6.114 10.145-12.302-0.592-6.191-6.115-10.744-12.303-10.147m-0.074-0.774c6.617-0.637 12.515 4.229 13.151 10.844 0.638 6.619-4.229 12.517-10.844 13.152-6.617 0.637-12.518-4.227-13.154-10.845-0.636-6.616 4.229-12.516 10.847-13.151"/>
            <path d="m477.57 247.21 17.701-19.356 1.409 1.289-17.701 19.355z"/>
            <path d="m151.54 68.515c3.579-5.087 2.354-12.132-2.732-15.712-5.087-3.579-12.133-2.354-15.71 2.732-3.578 5.085-2.355 12.134 2.73 15.713 5.085 3.578 12.136 2.353 15.712-2.733m0.636 0.448c-3.826 5.435-11.359 6.744-16.793 2.92-5.438-3.826-6.747-11.361-2.922-16.795 3.826-5.437 11.36-6.747 16.797-2.921 5.435 3.825 6.744 11.358 2.918 16.796"/>
            <path d="m143.79 70.391 3.165 26.038-1.894 0.23-3.166-26.037z"/>
            <path d="m140.49 497.78c3.579-5.087 2.354-12.132-2.732-15.712-5.087-3.579-12.133-2.353-15.711 2.732-3.577 5.085-2.354 12.134 2.731 15.713 5.084 3.578 12.135 2.353 15.712-2.733m0.636 0.448c-3.826 5.436-11.359 6.744-16.794 2.92-5.438-3.827-6.747-11.359-2.921-16.794 3.825-5.437 11.359-6.747 16.796-2.923 5.436 3.826 6.745 11.36 2.919 16.797"/>
            <path d="m132.73 499.65 3.165 26.038-1.894 0.231-3.166-26.036z"/>
            <path d="m480.81 207.22c0.175 16.121 13.435 29.091 29.553 28.912 16.121-0.182 29.09-13.438 28.911-29.556-0.178-16.119-13.435-29.089-29.554-28.91-16.118 0.177-29.09 13.436-28.91 29.554m-2.017 0.022c-0.189-17.229 13.675-31.4 30.902-31.592 17.232-0.191 31.406 13.675 31.593 30.904 0.194 17.231-13.671 31.402-30.902 31.592-17.229 0.191-31.403-13.672-31.593-30.904"/>
            <path d="m496.6 191.9-46.113-49.975 3.637-3.355 46.112 49.975z"/>
            <path d="m102.42 118.31c-1.839-21.318-20.678-37.159-41.99-35.32-21.318 1.839-37.161 20.673-35.322 41.989 1.838 21.314 20.674 37.16 41.991 35.322 21.313-1.839 37.16-20.679 35.321-41.991m2.666-0.229c1.965 22.781-14.974 42.92-37.757 44.885-22.785 1.965-42.923-14.974-44.888-37.756-1.965-22.786 14.973-42.921 37.758-44.886 22.784-1.966 42.92 14.971 44.887 37.757"/>
            <path d="m87.633 141.42 3.408-3.487 50.212 44.684-3.408 3.488z"/>
          </g>
          <g stroke-width="1.158">
            <path d="m134.17 485.66 330.13-223.84"/>
            <path d="m472.18 253.76-329.85-191.74"/>
            <path d="m508.98 225.68 4.708 235.15"/>
            <path d="m56.95 441.52 2.437-302.34"/>
            <path d="m78.88 466.92 406.94 42.644"/>
            <path d="m154.42 119.68 199.82-43.863"/>
            <path d="m412.11 133.69 68.84 325.92"/>
            <path d="m127.58 546.13 339.97-9.761"/>
            <path d="m158.08 105.06 342.37 102.16"/>
          </g>
          <path d="m105.65 546.37c0.133 12.093 10.08 21.821 22.172 21.688 12.094-0.134 21.822-10.08 21.688-22.171-0.133-12.093-10.079-21.823-22.172-21.689-12.091 0.133-21.822 10.08-21.688 22.172m-1.512 0.016c-0.143-12.925 10.258-23.557 23.182-23.699 12.927-0.144 23.56 10.259 23.701 23.182 0.144 12.928-10.255 23.558-23.183 23.7-12.925 0.143-23.558-10.256-23.7-23.183"/>
        </g>
        <path d="m212.39 399.08c-66.63 0-120.64-54.018-120.64-120.64 0-66.63 54.008-120.63 120.64-120.63 66.619 0 120.62 54 120.62 120.63 0 66.618-54.004 120.64-120.62 120.64" fill="#d9f1f3" stroke="#fff"/>
        <g fill="#92ced1">
          <path d="m161.03 94.753c10.477 6.874 13.397 20.94 6.524 31.415-6.874 10.478-20.938 13.395-31.414 6.521-10.476-6.873-13.398-20.936-6.523-31.414 6.873-10.473 20.938-13.396 31.413-6.522"/>
          <path d="m566.67 241.46c1.376 6.295-2.609 12.513-8.903 13.89-6.295 1.378-12.512-2.609-13.89-8.904-1.376-6.292 2.609-12.512 8.902-13.887 6.293-1.378 12.513 2.608 13.891 8.901"/>
          <path d="m473.29 265.38c-6.413 0.617-12.111-4.083-12.728-10.496-0.618-6.414 4.082-12.11 10.495-12.728 6.413-0.617 12.113 4.081 12.728 10.495 0.616 6.414-4.082 12.113-10.495 12.729"/>
          <path d="m132.78 55.312c3.708-5.269 10.985-6.534 16.253-2.827 5.271 3.708 6.535 10.986 2.827 16.252-3.708 5.27-10.985 6.537-16.253 2.829-5.269-3.709-6.535-10.985-2.827-16.254"/>
          <path d="m121.73 484.57c3.707-5.268 10.985-6.533 16.253-2.826 5.271 3.708 6.535 10.985 2.828 16.253-3.709 5.269-10.986 6.536-16.254 2.828-5.269-3.708-6.535-10.985-2.827-16.255"/>
          <path d="m540.28 206.56c0.183 16.702-13.207 30.391-29.907 30.576-16.703 0.183-30.388-13.208-30.571-29.908-0.185-16.701 13.201-30.39 29.904-30.572 16.7-0.185 30.39 13.202 30.574 29.904"/>
          <path d="m513.68 575.75c-41.206 0-74.607-33.405-74.607-74.604 0-41.207 33.402-74.6 74.607-74.6 41.2 0 74.599 33.393 74.599 74.6 0 41.199-33.399 74.604-74.599 74.604"/>
          <path d="m414.11 165.69c-41.206 0-74.606-33.405-74.606-74.605 0-41.207 33.401-74.6 74.606-74.6 41.2 0 74.6 33.393 74.6 74.6 0 41.2-33.4 74.605-74.6 74.605"/>
          <path d="m64.648 508.5c-22.169 0-40.138-17.971-40.138-40.137 0-22.169 17.97-40.134 40.138-40.134 22.166 0 40.135 17.965 40.135 40.134 0 22.166-17.969 40.137-40.135 40.137"/>
          <path d="m150.27 545.88c0.138 12.529-9.908 22.799-22.435 22.937-12.531 0.138-22.798-9.908-22.936-22.436-0.138-12.529 9.904-22.798 22.435-22.935 12.527-0.139 22.797 9.905 22.936 22.434"/>
          <path d="m23.771 125.1c-1.905-22.088 14.456-41.536 36.539-43.442 22.087-1.904 41.531 14.454 43.437 36.54 1.905 22.085-14.45 41.532-36.537 43.437-22.083 1.905-41.533-14.453-43.439-36.535"/>
        </g>
      </g>
    </g>
    <text x="3008.6628" y="1254.2197" fill="#000000" fill-opacity=".63251" font-family="Roboto" font-size="664.34px" stop-color="#000000" stroke-dasharray="19.5737, 58.7211" stroke-linecap="round" stroke-linejoin="round" stroke-width="19.574" style="line-height:0;text-decoration-color:#000000;white-space:pre" xml:space="preserve"><tspan x="3008.6628" y="1254.2197" font-family="Roboto" font-weight="300" stroke-width="19.574">Understanding</tspan></text>
    <text x="3012.0671" y="2318.2356" fill="#000000" fill-opacity=".63251" font-family="Roboto" font-size="1062.2px" stop-color="#000000" stroke-dasharray="31.2951, 93.8852" stroke-linecap="round" stroke-linejoin="round" stroke-width="31.295" style="line-height:0;text-decoration-color:#000000;white-space:pre" xml:space="preserve"><tspan x="3012.0671" y="2318.2356" stroke-width="31.295">Scripture</tspan></text>
    <g transform="matrix(.34701 0 0 .45852 748.26 1874.2)">
      <g fill="#fff" stroke-linecap="round" stroke-linejoin="round" stroke-width=".47778">
        <path d="m5.5139 210.43v650.31h191.31v-650.31z" fill-opacity=".29884" stop-color="#000000"/>
        <path d="m196.83 210.43v650.31h191.31v-287.7z" fill-opacity=".20003" stop-color="#000000"/>
        <path d="m579.45 467.22-191.31 105.83v287.7h191.31z" fill-opacity=".29884" stop-color="#000000"/>
        <path d="m770.76 361.39-191.31 105.83v393.52h191.31z" fill-opacity=".20003" stop-color="#000000"/>
        <path d="m771.43 361.02-0.66328 0.36762v499.35h191.31v-281.15z" fill-opacity=".29884" stop-color="#000000"/>
        <path d="m1153.4 149.73-191.3 105.82 0.0153 324.07-0.0316-0.0344v281.15h191.31z" fill-opacity=".20003" stop-color="#000000"/>
        <path d="m1344.7 43.907-191.31 105.83v711.01h191.31z" fill-opacity=".29884" stop-color="#000000"/>
        <path d="m1344.7 43.907v816.84h191.31v-816.84z" fill-opacity=".20003" stop-color="#000000"/>
      </g>
      <g display="none" fill="#ffffff" font-family="Roboto" stroke-linecap="round" stroke-linejoin="round" stroke-width=".5" text-anchor="middle">
        <g font-size="24px">
          <text x="104.66047" y="203.06139" display="inline" stop-color="#000000" text-align="center" style="-inkscape-stroke:none;line-height:1.1;text-decoration-color:#000000;white-space:pre" xml:space="preserve"><tspan x="104.66047" y="203.06139" fill="#ffffff" font-family="Roboto" font-weight="bold">Setting the scene</tspan></text>
          <text transform="rotate(57.139)" x="473.32455" y="-69.576813" display="inline" stop-color="#000000" text-align="center" style="-inkscape-stroke:none;line-height:1.1;text-decoration-color:#000000;white-space:pre" xml:space="preserve"><tspan x="473.32455" y="-69.576813" fill="#ffffff" font-family="Roboto" font-weight="bold">Bad things happen</tspan></text>
          <text transform="rotate(-25.433)" x="906.48749" y="648.67139" display="inline" stop-color="#000000" text-align="center" style="-inkscape-stroke:none;line-height:1.1;text-decoration-color:#000000;white-space:pre" xml:space="preserve"><tspan x="906.48749" y="648.67139" fill="#ffffff" font-family="Roboto" font-weight="bold">All is not lost!</tspan></text>
          <text transform="rotate(-25.433)" x="240.70734" y="639.29932" display="inline" stop-color="#000000" text-align="center" style="-inkscape-stroke:none;line-height:1.1;text-decoration-color:#000000;white-space:pre" xml:space="preserve"><tspan x="240.70734" y="639.29932" fill="#ffffff" font-family="Roboto" font-weight="bold">Make a plan</tspan></text>
          <text transform="rotate(-25.433)" x="463.56934" y="643.06549" display="inline" stop-color="#000000" text-align="center" style="-inkscape-stroke:none;line-height:1.1;text-decoration-color:#000000;white-space:pre" xml:space="preserve"><tspan x="463.56934" y="643.06549" fill="#ffffff" font-family="Roboto" font-weight="bold">Carry out the plan</tspan></text>
          <text transform="rotate(-25.433)" x="1121.6533" y="649.31244" display="inline" stop-color="#000000" text-align="center" style="-inkscape-stroke:none;line-height:1.1;text-decoration-color:#000000;white-space:pre" xml:space="preserve"><tspan x="1121.6533" y="649.31244" fill="#ffffff" font-family="Roboto" font-weight="bold">Victory</tspan></text>
          <text x="1494.8147" y="59.744728" display="inline" stop-color="#000000" text-align="center" style="-inkscape-stroke:none;line-height:1.1;text-decoration-color:#000000;white-space:pre" xml:space="preserve"><tspan x="1494.8147" y="59.744728" fill="#ffffff" font-family="Roboto" font-weight="bold">Happily ever after</tspan></text>
          <text transform="rotate(44.183)" x="955.68243" y="-320.86685" display="inline" stop-color="#000000" text-align="center" style="-inkscape-stroke:none;line-height:1.1;text-decoration-color:#000000;white-space:pre" xml:space="preserve"><tspan x="955.68243" y="-320.86685" fill="#ffffff" font-family="Roboto" font-weight="bold">all is lost?</tspan></text>
        </g>
        <text transform="rotate(-24.706)" x="539.26123" y="472.43927" display="inline" fill-opacity=".10316" font-size="64px" stop-color="#000000" text-align="center" style="-inkscape-stroke:none;line-height:0;text-decoration-color:#000000;white-space:pre" xml:space="preserve"><tspan x="539.26123" y="472.43927" fill="#ffffff" fill-opacity=".10316" font-family="Roboto" font-size="64px" font-weight="bold">story's trajectory →</tspan></text>
        <g font-size="24px">
          <text transform="rotate(-24.551)" x="698.2124" y="634.85565" display="inline" opacity=".6" stop-color="#000000" text-align="center" style="-inkscape-stroke:none;line-height:0;text-decoration-color:#000000;white-space:pre" xml:space="preserve"><tspan x="698.2124" y="634.85565" fill="#ffffff" font-family="Roboto" font-weight="bold">hope</tspan></text>
          <text x="104.66047" y="203.06139" display="inline" stop-color="#000000" text-align="center" style="-inkscape-stroke:none;line-height:1.1;text-decoration-color:#000000;white-space:pre" xml:space="preserve"><tspan x="104.66047" y="203.06139" fill="#ffffff" font-family="Roboto" font-weight="bold">God creates world</tspan></text>
          <text transform="rotate(57.139)" x="473.32455" y="-69.576813" display="inline" stop-color="#000000" text-align="center" style="-inkscape-stroke:none;line-height:1.1;text-decoration-color:#000000;white-space:pre" xml:space="preserve"><tspan x="473.32455" y="-69.576813" fill="#ffffff" font-family="Roboto" font-weight="bold">people sin</tspan></text>
          <text transform="rotate(-25.433)" x="906.48749" y="648.67139" display="inline" stop-color="#000000" text-align="center" style="-inkscape-stroke:none;line-height:1.1;text-decoration-color:#000000;white-space:pre" xml:space="preserve"><tspan x="906.48749" y="648.67139" fill="#ffffff" font-family="Roboto" font-weight="bold">Messiah arrives</tspan></text>
          <text transform="rotate(-25.433)" x="248.2607" y="614.10156" display="inline" font-weight="bold" stop-color="#000000" text-align="center" style="-inkscape-stroke:none;line-height:1.1;text-decoration-color:#000000;white-space:pre" xml:space="preserve"><tspan x="248.2607" y="614.10156">God promises</tspan><tspan x="248.2607" y="640.50159">to fix things</tspan></text>
          <text transform="rotate(-25.433)" x="463.56934" y="643.06549" display="inline" stop-color="#000000" text-align="center" style="-inkscape-stroke:none;line-height:1.1;text-decoration-color:#000000;white-space:pre" xml:space="preserve"><tspan x="463.56934" y="643.06549" fill="#ffffff" font-family="Roboto" font-weight="bold">God's people grow</tspan></text>
          <text transform="rotate(-25.433)" x="1121.6533" y="649.31244" display="inline" stop-color="#000000" text-align="center" style="-inkscape-stroke:none;line-height:1.1;text-decoration-color:#000000;white-space:pre" xml:space="preserve"><tspan x="1121.6533" y="649.31244" fill="#ffffff" font-family="Roboto" font-weight="bold">gospel spreads</tspan></text>
          <text x="1494.8147" y="59.744728" display="inline" stop-color="#000000" text-align="center" style="-inkscape-stroke:none;line-height:1.1;text-decoration-color:#000000;white-space:pre" xml:space="preserve"><tspan x="1494.8147" y="59.744728" fill="#ffffff" font-family="Roboto" font-weight="bold">eternal life</tspan></text>
          <text transform="rotate(44.183)" x="950.02606" y="-320.94754" display="inline" stop-color="#000000" text-align="center" style="-inkscape-stroke:none;line-height:1.1;text-decoration-color:#000000;white-space:pre" xml:space="preserve"><tspan x="950.02606" y="-320.94754" fill="#ffffff" font-family="Roboto" font-weight="bold">God's people fail</tspan></text>
          <text transform="rotate(-24.551)" x="698.2124" y="634.85565" display="inline" opacity=".6" stop-color="#000000" text-align="center" style="-inkscape-stroke:none;line-height:0;text-decoration-color:#000000;white-space:pre" xml:space="preserve"><tspan x="698.2124" y="634.85565" fill="#ffffff" font-family="Roboto" font-weight="bold">hope</tspan></text>
        </g>
        <text transform="rotate(-24.706)" x="539.26123" y="472.43927" display="inline" fill-opacity=".10316" font-size="64px" stop-color="#000000" text-align="center" style="-inkscape-stroke:none;line-height:0;text-decoration-color:#000000;white-space:pre" xml:space="preserve"><tspan x="539.26123" y="472.43927" fill="#ffffff" fill-opacity=".10316" font-family="Roboto" font-size="64px" font-weight="bold">gospel trajectory →</tspan></text>
      </g>
      <path d="m6.3139e-4 60.646h307.09l163.75 297.77 807.7-457.29h251.96" fill="none" stroke="#fff" stroke-opacity=".60581" stroke-width="95.923"/>
    </g>
  </g>
</svg>
